<svg width="300" height="300" viewBox="0 0 300 300" fill="none" xmlns="http://www.w3.org/2000/svg">
<g clip-path="url(#clip0_1_54)">
<path d="M148.819 101.15C54.3307 42.5672 9.44882 116.898 0 187.764H300C286.614 120.835 248.819 45.2444 148.819 101.15Z" fill="#8AB053"/>
<path d="M148.819 101.15C54.3307 42.5672 9.44882 116.898 0 187.764H300C286.614 120.835 248.819 45.2444 148.819 101.15Z" stroke="black"/>
<mask id="mask0_1_54" style="mask-type:alpha" maskUnits="userSpaceOnUse" x="155" y="117" width="124" height="105">
<path d="M162.061 148.794C174.656 118.873 208.515 119.652 226.625 119.652C244.735 119.652 276.235 132.259 276.235 170.054C276.235 207.849 241.589 228.322 202.219 215.723C162.848 203.125 149.466 178.715 162.061 148.794Z" fill="white" stroke="black" stroke-width="4"/>
</mask>
<g mask="url(#mask0_1_54)">
<path d="M162.061 148.794C174.656 118.873 208.515 119.652 226.625 119.652C244.735 119.652 276.235 132.259 276.235 170.054C276.235 207.849 241.589 228.322 202.219 215.723C162.848 203.125 149.466 178.715 162.061 148.794Z" fill="white" stroke="black" stroke-width="8"/>
</g>
<mask id="mask1_1_54" style="mask-type:alpha" maskUnits="userSpaceOnUse" x="37" y="117" width="124" height="105">
<path d="M153.542 148.794C140.947 118.873 107.088 119.652 88.9781 119.652C70.868 119.652 39.3684 132.259 39.3684 170.054C39.3684 207.849 74.0144 228.322 113.384 215.723C152.755 203.125 166.137 178.715 153.542 148.794Z" fill="white" stroke="black" stroke-width="4"/>
</mask>
<g mask="url(#mask1_1_54)">
<path d="M153.542 148.794C140.947 118.873 107.088 119.652 88.9781 119.652C70.868 119.652 39.3684 132.259 39.3684 170.054C39.3684 207.849 74.0144 228.322 113.384 215.723C152.755 203.125 166.137 178.715 153.542 148.794Z" fill="white" stroke="black" stroke-width="8"/>
</g>
</g>
<defs>
<clipPath id="clip0_1_54">
<rect width="300" height="300" fill="white"/>
</clipPath>
</defs>
</svg>
