<svg xmlns="http://www.w3.org/2000/svg" id="Layer_1" data-name="Layer 1" viewBox="0 0 1365 1999"><defs><style>.cls-1{fill:#bebfb9}.cls-3{fill:#fff}.cls-5{fill:#d5d1c0}.cls-6{stroke:#231f20;stroke-miterlimit:10}.cls-11{fill:#c7a163}.cls-12{fill:#bbbcb7}.cls-13{fill:#94948e}.cls-14{fill:#d42027}.cls-15{fill:#efe069}.cls-16{fill:#6f2e2c}.cls-17{fill:#983a39}.cls-18{fill:#1b75bb}.cls-19{fill:#140d0c}.cls-6{fill:none}.cls-22{fill:#dcb980}.cls-6{stroke-linecap:round;stroke-width:2px}.cls-23{fill:#9a7641}.cls-24{fill:#231f20}</style></defs><path d="M1080.14 2217.47c-26.73-202.26-38.65-408.26-79.93-607.97l-.18-.63c-4.28-12.26-2.28-16.76 9.36-22.36 39.21-18.96 52.91-73.79 28.32-111.14l-.43-.51c-69.56-66.12-181.66-50.52-266.85-88.94-86.28-40.29-72.04-165.64-96.2-245.2l-.07-.27c-24.4-129.77-49.17-260.54-102.15-382.23l-.09-.24c-68.01-199.07-355.53-223.63-485.4-72.88-132.06 165.5-51.35 389.49-32.54 578.98 11.66 89.56 22.42 153.6 28.6 243.64l.55 21.62c.43 16.69 4.44 33.19 12.38 47.88 9.07 16.76 17.71 22.19 32.47 37.29.85.89 1.15 2.11.78 3.26-37.99 123.29-55.5 447.82-62.98 563.86-1.2 18.61 40.02 21.06 46.83 7.81 5.63-10.92 7.99-37.71 10.21-55.54 21.61-173.81 30.71-505.77 80.07-489.66 55.57 31.99 148.35 28.4 178.01 90.67l.11.27c23.89 75.14 23.24 197.81 35.07 300.92 14.29 115.48 14.29 235.4 36.47 348.54l.47 1.29c17.68 31.03 86.72 6.57 69.26-32.52l-.16-.45c-6.74-27.74-13.48-160.36-17-199.35-18.73-139.76-16.07-281.86-43.84-420.37-2.67-10.26 1.52-13.59 12.55-13.77 35.12 9.24 152.02-46.33 159.94-8.92l.07 1.18c-7.66 110.03-30.1 218.92-36.1 328.88-5.29 33.58 58.31 32.4 61.68 3.96 14.7-116.85 23.44-234.73 39.8-351.36 5.7-38.28 165.84-60.75 214.07-72.46 10.7-2.6.44-.19.7-.26 25.79-7.16 25.69 21.16 29.72 37.5l.05.26c21.77 187.45 48.54 373.87 65.79 561.84-3 33.14 74.9 38.1 70.57-2.63Zm-619.33-368.94c15.07 145.8 23.23 291.86 36.78 437.77.04.26-54.73-151.83-54.73-152.06-11.63-122.25-18.96-245.06-35.14-366.83-2.52-17.85-7.85-34.51-16.92-49.87-1.52-2.55.67-5.7 3.55-5 21.58 5.18 51.94 1.41 52.91 26.47 7.03 36.25 10.51 72.42 13.55 109.52m216.37-101.04v.22c-11 81.75-18.29 163.94-29.14 245.69-2.07 23.77 5.44 66.42-31.88 51.65-1-.37-1.78-1.22-2.04-2.22-4.48-17.62 5.22-44.1 4.67-64.16 0-.19 0-.33.04-.52 15.88-94.26 15.59-195.37 39.1-286.42.19-.85.74-1.59 1.48-2.04 39.21-25.1 18.36 36.32 17.77 57.79Zm260.57-153.76c-150.69 43.21-302.41 91.78-458.72 107.96h-.3c-115.77 4.74-219.44-62.35-327.33-95.71-78.05-15.85-50.13-252.84-77.86-331.73-.07-.22-.15-.44-.15-.67-14.14-126.88-55.54-254.46-39.13-381.46 9.33-72.38 20.96-170.24 89.38-216.29 1.85-1.22 4.52-.33 5.04 1.81 1.22 5.26-2.96 8.7-5.55 12.37C83.22 746.17 71 811 68.08 877.54c-11.11 199.08 42.98 390.42 55.98 587.68 7.29 110.92 230.95 158.5 333.62 164.83 4 .26 4.92-5.48 1.07-6.55-90.45-24.99-279.68-67.94-298.04-151.95-.04-.11-.04-.26-.07-.37C139.02 1281.54 73 1108.35 80.52 916.6c7.92-201.19 176.46-400.08 391.53-267.13.22.15.44.33.63.52 174.68 173.9 156.91 454.54 226.88 678.39 35.54 117.85 222.36 89.3 313.74 142.69.37.22.74.56 1.04.93 54.17 70.97-8.59 106.63-76.57 121.74Zm94.04 633.25c-.63-.48-1.04-1.22-1.18-2-20.1-105.7-22.51-215.92-39.43-322.62-13.96-95.41-17.96-192.75-41.87-286.49-2.26-8.52 7.29-9.52 13.37-10.74.33-.07.63-.19.93-.37 32.47-18.1 15.58 41.61 24.13 60.9.15.26 10.63 11.74 10.67 12.03 24.29 177.53 45.13 356.5 64.42 534.29 4.07 16.66-20.1 23.25-31.03 14.99Z" class="cls-19"/><path d="M571.84 817.38v.04h.04v-.04z" style="fill:#b2302e"/><path d="M964.7 1520.42c-3.67 1.7-7.37 3.3-11.11 4.81-3.04 1.33-6.11 2.63-9.22 3.81-1.7.74-3.44 1.44-5.18 2.07-2.04.85-4.11 1.67-6.18 2.41-.44.22-.93.37-1.37.52-2.41.96-4.81 1.85-7.22 2.7-5.15 1.93-10.29 3.78-15.51 5.52-2.7.96-5.41 1.89-8.15 2.78-14.66 4.89-29.43 9.37-44.35 13.55-4.11 1.15-8.22 2.3-12.37 3.41-3.18.89-6.33 1.7-9.51 2.55-1.74.44-3.52.93-5.29 1.37-4 1.04-8 2.07-12 3.07-8.48 2.11-16.99 4.18-25.47 6.26-3.55.85-7.07 1.7-10.63 2.55l-12.55 3c-15.66 3.78-31.32 7.74-46.98 11.66-3.92 1-7.81 1.96-11.74 2.92-5.48 1.37-11 2.7-16.51 4.07a713 713 0 0 1-12.55 3c-4.18 1-8.37 1.96-12.55 2.92s-8.4 1.89-12.59 2.81c-2.74.59-5.52 1.18-8.26 1.78-2.78.59-5.55 1.15-8.33 1.7-2.89.63-5.81 1.18-8.7 1.74-4.22.81-8.48 1.63-12.7 2.37-3.7.67-7.4 1.33-11.11 1.93-9.03 1.52-18.14 2.85-27.25 4-11.4 1.44-22.81 2.7-34.58 2.04 44.72-11.11 89.71-21.33 134.62-31.73 8.07-1.89 16.11-3.78 24.18-5.66 4.15-.93 8.26-1.93 12.4-2.92 6.37-1.48 12.74-3 19.07-4.52 12.55-3 25.06-6.03 37.58-9.18 3.7-.93 7.4-1.85 11.11-2.81 28.06-7.11 56.05-14.62 83.82-22.81 4.44-1.3 8.85-2.59 13.29-3.96 2.22-.67 4.44-1.33 6.66-2.04 7.26-2.18 14.44-4.48 21.66-6.81 6.66-2.15 13.37-4.33 20.03-6.59 2.52-.85 5-1.7 7.48-2.59 9.26-3.15 18.47-6.44 27.66-9.81.19-.07.37-.15.56-.22 1.7 2 3.41 4 5.11 6-1.74.81-3.48 1.59-5.26 2.33ZM571.84 819.23v-.07s.04.04.04.07v.04h-.04zM436.41 1436.6c-3.11.7-6.22 1.41-9.29 2.11-.85.19-1.67.37-2.52.59-7.37 1.67-14.74 3.37-22.1 5.11-.07 0-.15.04-.22.04-10.96 2.55-21.88 5.15-32.8 7.81-8.85 2.15-17.66 4.33-26.51 6.52-8.81 2.18-17.66 4.41-26.47 6.66-.96.26-1.93.48-2.92.74-18.96 4.85-37.88 9.81-56.76 14.92h-.04c-19.29 5.22-38.54 10.55-57.79 16.07 28.4-10.55 56.98-20.25 85.75-29.25 9.59-3 19.22-5.89 28.84-8.74h.04c4.81-1.41 9.63-2.81 14.48-4.18 4.59-1.33 9.22-2.63 13.85-3.89 5.04-1.41 10.07-2.78 15.11-4.15h.04c18.14-4.89 36.39-9.48 54.68-13.77 12.18-2.89 24.4-5.66 36.65-8.29 18.36-4 36.76-7.7 55.24-11.14a1952 1952 0 0 1 29.62-5.33c14.81-2.55 29.66-4.96 44.54-7.22 29.8-4.52 59.68-8.4 89.71-11.77-59.28 10.81-118.29 22.51-177.08 35.17-18.03 3.89-36.02 7.89-54.02 12Z" class="cls-16"/><path d="M1035.9 1530.49c-.48 13.99-4.11 22.81-12.22 30.95-.78.81-5.81 4.33-6.74 5.11-1.78 1.52-3.74 2.92-5.89 4.22-2.11 1.3-4.44 2.48-6.96 3.59-1.26.56-2.55 1.07-3.89 1.56-6.78 2.48-13.59 4.96-20.4 7.37-13.62 4.85-28.92 10.03-42.61 14.59-6.85 2.26-12.14 3.96-19.03 6.15-9.18 2.89-18.36 5.74-27.58 8.52-36.88 11.07-73.6 22.55-111.22 31.17-44.1 10.11-87.15 23.73-131.29 33.65-55.57 12.44-111.74 24.66-169.2 26.18-45.91 4.81-90.15-4.81-132.58-20.25-65.61-23.84-130.29-49.17-195.56-73.75-34.95-13.18-42.1-38.21-47.76-71.75-15.25-90.15-19.81-175.2-32.69-262.24-11.96-80.38-23.7-161.39-34.99-241.88-6.55-46.65-5.81-93.15-2.44-140.1 4.59-65.05 16.11-129.06 54.87-183.86 10.18-14.33 26.47-34.54 39.17-36.32 5 7.63-.59 13.96-3.78 18.47C83.2 748.03 70.98 812.86 68.06 879.4c-5.52 124.58 10.51 247.28 33.69 369.53 13.74 72.42 23.36 140.13 32.03 213.33 4 33.69 16.51 63.01 41.21 80.34 2 1.41 4.04 2.74 6.18 4.04 2.11 1.33 4.33 2.59 6.63 3.81 1.7.93 3.48 1.81 5.26 2.7 1.81.89 3.67 1.78 5.55 2.63 70.12 31.4 180.45 54.39 130.1 38.25-16.81-5.41-33.51-11.18-50.06-17.18a1697 1697 0 0 1-33.03-12.44c-5.48-2.15-10.96-4.29-16.4-6.48-10.92-4.41-20.96-13.62-31.8-18.22-27.06-11.37-44.87-24.58-51.28-54.28-8.37-38.91-10.18-78.56-16.11-117.7-15.88-105.59-38.39-210.18-48.2-316.63-4.11-44.58-7.85-89.45-5.33-134.43.15-4.59.33-9.18.44-13.85.33-2.59.59-5.22.85-7.85 3.81-83.04 13.7-163.9 76.82-227.1 35.8-35.77 78.9-55.94 128.66-60.02 67.35-5.48 132.06 3.41 189.08 43.69 47.02 33.28 72.97 80.97 90.75 133.99 3.67 10.96 5.92 22.44 8.81 33.69 30.88 48.8 40.54 104.81 51.83 159.76 5.15 25.1 14.81 48.69 18.92 74.01 15.14 93.19 31.88 186.12 56.87 277.23 10.51 38.39 33.47 65.01 74.38 75.2 53.87 13.44 106.96 30.21 160.91 43.21 15.07 3.67 30.36 5.85 45.28 9.89 3.33.93 6.66 1.93 9.96 3.07 2.22.74 4.41 1.59 6.55 2.44 3.3 1.33 6.52 2.85 9.7 4.52.7.37 1.37.74 2.04 1.11 2 1.15 3.85 2.33 5.52 3.59 1.7 1.26 12.14 1.15 13.51 2.48 14.62 14.14 9.26 34.28 8.52 54.76" class="cls-16"/><path d="M385.74 1709.65c18.68 3.39 31.9 6.64 47.94 7.49 10.1.54 12.63 13.77 14.11 21.31 10.83 55.17 13.39 111.46 18.73 167.26 4.99 52.13 10.88 104.49 15.74 156.64 2.92 31.28 3.88 61.42 6.49 92.74 3.62 43.45 7.92 88.15 11.72 131.58 2.29 26.15 3.04 52.44 5.08 78.62 1 12.85-5.63 17.27-16.82 17.56-10.47.27-19.66.52-23.53-13.66-6.03-22.09-6.19-45.09-7.36-67.01-3.02-56.12-9.94-111.83-14.95-167.65-7.34-81.84-14.12-163.73-21.59-245.55-3.7-40.48-7.86-80.97-13.54-121.21-2.72-19.27-8.46-38.35-22.01-58.12ZM1063.14 2203.73c-1.85 11.27 4.97 23.36-15.06 26.03-16.45 2.19-19.41-3.03-20.9-15.7-4.27-36.15-8.77-72.28-12.85-108.45-7.65-67.76-13.04-135.85-23.15-203.24-9.9-65.99-14.37-132.19-25.59-198.05-4.87-28.57-7.98-57.54-16.51-85.41-4.5-14.71 9.84-11.64 16.09-15.31 9.66-5.68 17.34-3.76 19.8 8.02 5.62 26.89 11.98 53.72 15.75 80.88 9.28 66.86 17.65 133.86 25.65 200.89 6.72 56.29 11.95 112.76 18.7 169.05 4.92 40.99 11.3 81.8 16.86 122.71.89 6.54.88 13.2 1.21 18.57ZM71.81 2169.63c10.29-44.55 11.88-90.36 16.37-135.65 3.44-34.78 7.51-69.52 10.91-104.32 5.15-52.71 12.33-105.25 16.03-158.05 2.14-30.57 7.53-60.68 9.42-91.07.95-15.23 5.91-28.29 10.68-41.89 4.56-12.99 11.65-17.99 26.5-11.39 15.86 7.06 5.57 14.84 2.73 22.16-10.91 28.09-15.29 57.21-17.58 87.17-4.73 61.72-12.92 123.21-16.24 184.99-2.09 38.79-7.43 77.17-9.86 115.83-2.78 44.36-10.21 88.36-9.86 132.97.12 14.79-11.23 17.89-22.85 17.47-10.54-.39-18.26-5.41-16.26-18.23Z" class="cls-13"/><path d="M571.88 817.38v.04h-.04v-.04z" class="cls-17"/><path d="M684.27 1700.79c-7.53 62.2-18.16 125.04-23.33 188.17-3.81 46.49-11.96 88.11-11.16 134.91.36 20.97-14.84 28.06-28.37 25.78-15.64-2.64-8.98-17.65-8.48-26.23 2.68-45.83 11.78-89.61 17.01-135.13 4.62-40.22 4.57-77.52 9.37-117.71 2.41-20.15 9.99-43.17 11.99-63.36.83-8.37 2.57-15.18 11.08-19.51 6.33-3.23 13.14-5.63 18.89-2.83 6.22 3.03 4.77 1.83 2.99 15.91Z" class="cls-13"/><path d="M571.88 817.38v.04h-.04v-.04zM411.75 1431.34c12.18-2.85 24.4-5.63 36.65-8.29a1815 1815 0 0 0-36.65 8.29M964.85 1510.24c-.19.07-.37.15-.56.22-.19 1-.26 2-.26 3.07 0 1.81.22 3.48.67 5.04 1.78-.74 3.52-1.52 5.26-2.33-1.7-2-3.41-4-5.11-6" class="cls-17"/><path d="M661.06 1390.88c-59.28 10.81-118.29 22.51-177.08 35.17-29.4 6.33-58.68 12.92-87.93 19.77-.07.04-.15.04-.22.07-10.96 2.55-21.88 5.15-32.8 7.81-8.85 2.15-17.66 4.29-26.51 6.52-8.81 2.18-17.66 4.41-26.47 6.66-.96.22-1.96.48-2.92.74-18.96 4.85-37.88 9.81-56.76 14.92h-.04c-19.29 5.22-38.54 10.55-57.79 16.07 28.4-10.55 56.98-20.25 85.75-29.25 9.59-3 19.22-5.89 28.84-8.74h.04c4.81-1.41 9.63-2.81 14.48-4.18 4.59-1.33 9.22-2.63 13.85-3.89 5.04-1.41 10.07-2.81 15.11-4.15h.04c18.14-4.89 36.39-9.48 54.68-13.77 12.18-2.89 24.4-5.66 36.65-8.29 18.36-4 36.76-7.7 55.24-11.14a1952 1952 0 0 1 29.62-5.33c14.81-2.55 29.66-4.96 44.54-7.22 29.8-4.52 59.68-8.4 89.71-11.77Z" class="cls-19"/><path d="M968.27 1520.4c-1.81.81-3.62 1.59-5.46 2.33-3.85 1.63-7.66 3.26-11.54 4.81-3.16 1.3-6.35 2.55-9.58 3.81-1.77.74-3.58 1.44-5.39 2.07-2.12.85-4.27 1.63-6.43 2.41-.46.22-.96.37-1.42.52-2.5.96-5 1.85-7.5 2.7-5.35 1.93-10.7 3.78-16.12 5.52a335 335 0 0 1-8.47 2.78c-15.24 4.89-30.59 9.37-46.1 13.55-4.27 1.15-8.54 2.3-12.85 3.41-3.27.85-6.58 1.7-9.89 2.55-1.81.44-3.66.93-5.5 1.37-4.16 1.04-8.31 2.07-12.47 3.07-8.81 2.11-17.66 4.18-26.48 6.26-3.69.85-7.39 1.67-11.08 2.52-4.35 1-8.66 2-13.01 3.04-16.28 3.78-32.56 7.74-48.83 11.66-4.04 1-8.12 1.96-12.2 2.92-5.7 1.37-11.43 2.7-17.16 4.07l-13.05 3c-4.35 1-8.7 1.96-13.05 2.92-4.39.96-8.74 1.89-13.08 2.81-2.89.59-5.73 1.18-8.58 1.78-2.89.59-5.77 1.15-8.66 1.7-3 .63-6.04 1.18-9.04 1.74-4.39.85-8.81 1.63-13.2 2.37-3.85.67-7.7 1.33-11.54 1.93-9.39 1.52-18.86 2.85-28.32 4-11.85 1.44-23.71 2.7-35.94 2.04 46.49-11.11 93.24-21.33 139.92-31.73 8.39-1.89 16.74-3.78 25.13-5.66 4.31-.93 8.58-1.93 12.89-2.92 6.62-1.48 13.2-3 19.82-4.52 13.05-3 26.05-6.03 39.06-9.18 3.85-.93 7.7-1.85 11.54-2.81 29.17-7.11 58.26-14.62 87.13-22.81 4.62-1.3 9.24-2.59 13.82-3.96 2.31-.67 4.62-1.33 6.93-2.04 7.54-2.18 15.01-4.48 22.51-6.81 6.93-2.15 13.89-4.33 20.82-6.59 2.62-.85 5.2-1.7 7.77-2.59 9.62-3.15 19.2-6.44 28.75-9.81.19-.07.38-.15.58-.22l5.31 6ZM419.03 954.85c1.68 1.04 2.47 2.54 2.39 4.52a8.66 8.66 0 0 1-1.93 4.86c-1.69 2.02-3.86 3.21-6.53 3.54-.96.13-1.98.08-3.06-.17s-1.97-.76-2.68-1.53c-.67-.83-1.09-1.76-1.24-2.79s-.17-2.05-.06-3.05c.14-1.51.51-3.09 1.1-4.75s1.23-3.15 1.93-4.49c.95-1.95 2.17-3.58 3.67-4.87s3.38-2 5.64-2.12q2.64-.12 4.35.87c1.71.99 1.7 1.87 1.67 3.62q0 .96-.3 1.83c-.3.87-.56 1.07-1.08 1.46-.9.64-1.89.89-2.96.74q-.945-.165-1.38-.84c-.29-.46-.32-.98-.08-1.58.16-.36.17-.69.04-1.01-.13-.3-.47-.46-1.01-.46-.36.01-.64.12-.83.31-.19.2-.37.46-.54.77-.06.12-.13.24-.22.36-.14.24-.41.73-.8 1.46s-.79 1.52-1.2 2.35c.84-.06 1.72-.03 2.64.11s1.75.42 2.49.85Z" class="cls-24"/><path d="M413.21 963.31c.48-.18 1-.59 1.55-1.24.55-.64.9-1.32 1.05-2.02.14-.7-.16-1.24-.92-1.6-.58-.3-1.34-.4-2.28-.29-.1.21-.19.4-.27.6-.25.51-.47 1.02-.65 1.55s-.27 1.09-.25 1.68c0 .39.11.73.34 1.03.16.17.34.28.56.33.3.07.59.06.87-.04M438.5 947.45c.17.8.12 1.6-.14 2.42-.26.81-.57 1.58-.93 2.3l-.24.51a27 27 0 0 1-1.88 3.42c-.48.75-.96 1.49-1.43 2.24-1.07 1.72-2.19 3.42-3.34 5.08-.16.22-.32.44-.49.67-.37.58-.78 1.14-1.23 1.69s-.95 1.02-1.52 1.42c-.54.34-1.16.55-1.84.62-.69.08-1.31-.02-1.88-.3s-.93-.77-1.08-1.48c-.11-.63-.04-1.25.2-1.87s.52-1.21.83-1.78c.08-.16.17-.31.25-.47.87-1.53 1.87-2.96 3.02-4.28.11-.13.21-.26.31-.4.23-.28.46-.56.69-.85 1.65-2.12 3.37-4.16 5.15-6.11-.57.13-1.29.2-2.16.2s-1.54-.01-2-.04c-.88-.01-1.62-.17-2.23-.48-.61-.3-.92-.86-.93-1.65.05-1.3.39-2.26 1.03-2.87q.96-.915 2.43-1.17c.98-.18 2-.26 3.05-.26.81-.03 1.66.07 2.55.29s1.69.58 2.39 1.1c.7.51 1.18 1.2 1.43 2.07Z" class="cls-24"/><path d="M983.59 1223.43c-8.52 26.44-19.29 51.13-31.77 74.16-27.88 51.39-64.16 94.45-102.26 129.92-55.17 51.35-114.11 86.78-156.61 108.52-4.63 2.37-9.33 4.63-14.11 6.74h-.04c-36.17 16.14-75.53 24.92-114.7 25.55-122.22 1.96-331.73-33.62-362.24-293.04-42.73-363.28 39.36-818.97 86.23-891.9 1.41-2.15 2.96-4.7 4.74-7.55 19.7-32.03 62.09-100.93 164.83-137.8.56-.22 1.07-.41 1.63-.56l.04-.04c4.67-1.67 9.4-3.22 14.33-4.74 1.78-.56 3.55-1.07 5.37-1.59 1.78-.56 3.59-1.07 5.44-1.55 2.48-.7 4.96-1.37 7.48-2 3.15-.81 6.33-1.59 9.59-2.33 2.7-.63 5.41-1.22 8.18-1.78 3.04-.63 6.11-1.26 9.22-1.81 3.11-.59 6.26-1.15 9.48-1.67s6.44-1 9.74-1.48 6.63-.89 10-1.3c20.25-2.44 42.06-3.78 65.53-3.78 5.81 0 11.81.07 17.85.26 4.81.15 9.55.37 14.22.74 4.7.37 9.29.85 13.81 1.41 9.03 1.18 17.81 2.78 26.29 4.81v-.11c1.59.37 3.18.78 4.74 1.18 1.44.37 2.85.74 4.26 1.11 2.37.67 4.7 1.33 7 2.07 2 .63 3.96 1.3 5.92 1.96 60.61 21.1 105.15 67.57 135.03 140.47.15.37.33.78.48 1.15 8.22 20.21 14.88 41.39 20.29 62.94 17.7 69.83 22.47 143.43 26.18 200.82.85 13.14 1.67 25.55 2.55 36.62 2.81 35.06 13.55 70.49 31.06 102.48 21.62 39.5 126.14 246.91 60.24 452.13Z" class="cls-11"/><path d="M983.59 1223.43c-8.52 26.44-19.29 51.13-31.77 74.16-27.88 51.39-64.16 94.45-102.26 129.92-55.17 51.35-114.11 86.78-156.61 108.52-4.63 2.37-9.33 4.63-14.11 6.74h-.04c-36.17 16.14-75.53 24.92-114.7 25.55-122.22 1.96-331.73-33.62-362.24-293.04-42.73-363.28 39.36-818.97 86.23-891.9 1.41-2.15 2.96-4.7 4.74-7.55 19.7-32.03 62.09-100.93 164.83-137.8.56-.22 1.07-.41 1.63-.56l.04-.04c4.67-1.67 9.4-3.22 14.33-4.74 1.78-.56 3.55-1.07 5.37-1.59 1.78-.56 3.59-1.07 5.44-1.55 2.48-.7 4.96-1.37 7.48-2 3.15-.81 6.33-1.59 9.59-2.33 2.7-.63 5.41-1.22 8.18-1.78 3.04-.63 6.11-1.26 9.22-1.81 3.11-.59 6.26-1.15 9.48-1.67s6.44-1 9.74-1.48 6.63-.89 10-1.3c20.25-2.44 42.06-3.78 65.53-3.78 5.81 0 11.81.07 17.85.26 4.81.15 9.55.37 14.22.74 4.7.37 9.29.85 13.81 1.41 9.03 1.18 17.81 2.78 26.29 4.81v-.11c1.59.37 3.18.78 4.74 1.18 1.44.37 2.85.74 4.26 1.11 2.37.67 4.7 1.33 7 2.07 2 .63 3.96 1.3 5.92 1.96 60.61 21.1 105.15 67.57 135.03 140.47.15.37.33.78.48 1.15 8.22 20.21 14.88 41.39 20.29 62.94 17.7 69.83 22.47 143.43 26.18 200.82.85 13.14 1.67 25.55 2.55 36.62 2.81 35.06 13.55 70.49 31.06 102.48 21.62 39.5 126.14 246.91 60.24 452.13Z" class="cls-11"/><path d="M678.85 1542.76h-.04c-36.17 16.14-75.53 24.92-114.7 25.55-122.22 1.96-331.73-33.62-362.24-293.04-42.73-363.28 39.36-818.97 86.23-891.9 1.41-2.15 2.96-4.7 4.74-7.55 19.7-32.03 62.09-100.93 164.83-137.8-120.25 40.54-158.54 114.74-175.68 141.36-48.39 75.31-130.58 529.33-87.34 896.75 41.5 353.17 392.67 293.97 420.55 287.56 51.8-11.88 64.24-20.7 65.16-21.44-.19.11-.67.33-1.52.52Zm251.1-775.02c-16.59-30.32-27.4-65.05-30.14-99.52-9.66-120.25-9.92-379.38-192.04-441.4 60.61 21.1 105.15 67.57 135.03 140.47.15.37.33.78.48 1.15 8.22 20.21 14.88 41.39 20.29 62.94 17.7 69.83 22.47 143.43 26.18 200.82.85 13.14 1.67 25.55 2.55 36.62 2.81 35.06 13.55 70.49 31.06 102.48 21.62 39.5 126.14 246.91 60.24 452.13-8.52 26.44-19.29 51.13-31.77 74.16 15.22-21.92 30.06-44.35 38.91-71.9 59.31-184.64-15.66-375.53-60.79-457.95" class="cls-24"/><path d="M685.85 220.49v.04c1.59.33 3.18.74 4.74 1.15-1.55-.41-3.15-.81-4.74-1.18Z" style="fill:#292016"/><path d="m1164.08 1055.67-2.48-2.93c-5.52-6.55-14.22-9.7-22.7-8.18l-16.36 2.96c-3.7.67-7.18 2.18-10.14 4.44L991.85 899.68c-20.36-68.09-45.91-117.99-55.5-135.51-16.55-30.17-26.66-63.57-29.29-96.56-.89-10.96-1.7-23.32-2.55-36.39-9.63-148.72-27.58-425.59-272.57-432.4-103.78-2.89-190.01 18.88-256.24 64.64-54.2 37.47-81.05 81.12-95.48 104.56-1.7 2.78-3.22 5.22-4.55 7.33-49.06 76.31-132.4 528.55-88.49 901.64 14.11 119.92 66.83 206.33 156.68 256.83 71.71 40.32 153.06 49.35 211.55 49.35 3.04 0 6.03-.04 8.92-.07 23.29-.37 46.65-3.48 69.38-9.18 22.81-5.7 44.98-13.99 65.98-24.73 87.04-44.47 241.47-145.32 297.97-321.26 24.07-74.9 26.1-150.02 17.73-217.51l65.75 97.59c-2.04 9.66-3.89 22.36-2.55 32.21 1.04 7.63 3.85 13.18 8.4 16.55 3.7 2.78 7.55 3.26 9.77 3.26.63 0 1.11-.07 1.48-.07l8.4-.44c7.89-.37 15.11-4.59 19.29-11.29l40.17-64.16a24.05 24.05 0 0 0-2.04-28.4Zm-173.35 170.01c-8.85 27.55-23.7 49.98-38.91 71.9-27.88 51.39-64.16 94.45-102.26 129.92-55.17 51.35-114.11 86.78-156.61 108.52-4.63 2.37-9.33 4.63-14.11 6.74.85-.19 1.33-.41 1.52-.52-.93.74-13.37 9.55-65.16 21.44-27.88 6.41-379.05 65.61-420.55-287.56-43.24-367.42 38.95-821.45 87.34-896.75 17.14-26.62 55.42-100.82 175.68-141.36.56-.22 1.07-.41 1.63-.56l.04-.04c4.67-1.67 9.4-3.22 14.33-4.74 1.78-.56 3.55-1.07 5.37-1.59 1.78-.56 3.59-1.07 5.44-1.55 2.44-.7 4.92-1.37 7.48-2 3.15-.81 6.33-1.59 9.59-2.33 2.7-.63 5.41-1.22 8.18-1.78 3-.67 6.07-1.26 9.22-1.81 3.07-.59 6.26-1.15 9.48-1.67 3.18-.52 6.44-1.04 9.74-1.48 3.3-.48 6.63-.89 10-1.3 20.25-2.44 42.06-3.78 65.53-3.78 5.81 0 11.81.07 17.85.26 4.81.15 9.55.37 14.22.74 4.67.33 9.29.78 13.81 1.41 9.03 1.11 17.81 2.67 26.29 4.7 1.59.37 3.18.78 4.74 1.18 1.44.37 2.85.74 4.26 1.11 2.37.67 4.7 1.33 7 2.07 2 .63 3.96 1.26 5.92 1.96 182.12 62.01 182.38 321.14 192.04 441.4 2.74 34.47 13.55 69.2 30.14 99.52 45.13 82.41 120.11 273.31 60.79 457.95Zm92.97-127.25-.26-.37-69.83-100.74c-3.85-26.4-9.22-51.57-15.36-74.94l104.78 137.69-10.48 20.81zm73.01-20.25-40.21 64.16a13.13 13.13 0 0 1-10.4 6.11l-8.59.41-.48.04c-1 .15-6.03.11-7.4-10.11-1.74-12.77 3.26-32.91 4.81-38.8.33-1.18.81-2.37 1.48-3.44l19.77-32.1a13.16 13.16 0 0 1 8.81-6l16.36-2.93c.78-.15 1.52-.22 2.3-.22 3.81 0 7.48 1.67 9.96 4.63l2.48 2.89a13.075 13.075 0 0 1 1.11 15.36" class="cls-24"/><path d="M680.37 1542.24c-.93.74-13.37 9.55-65.16 21.44-27.88 6.41-379.05 65.61-420.55-287.56C151.42 908.7 233.61 454.67 282 379.37c17.14-26.62 55.42-100.82 175.68-141.36.56-.22 1.07-.41 1.63-.56-36.32 38.1-129.14 137.06-143.73 214.48-18.03 95.45-129.69 758.28 97.26 936.59 202.15 158.83 256.5 156.65 265.98 154.24h.04c.85-.19 1.33-.41 1.52-.52Z" class="cls-23"/><path d="M990.74 1225.68c-8.85 27.55-23.7 49.98-38.91 71.9-6.55 9.4-13.14 18.73-19.36 28.32-7.44-13.25-3.96-20.25-2.7-32.84 1.55-15.48 10.63-25.92 14.4-30.62 74.34-92.23 17.66-323.92 9-362.06-18.59-81.93-48.54-147.95-75.64-196.3 5.96-124.4-.37-211.74-13.96-272.72-5.74-25.81-12.77-46.91-20.77-64.09-16.29-35.02-36.39-53.76-57.13-63.05-24.92-11.18-67.68-16.36-88.26-52.24-6.85-11.96-11.03-17.85-11.55-31.4v-.11c1.59.37 3.18.78 4.74 1.18 1.44.37 2.85.74 4.26 1.11 2.37.67 4.7 1.33 7 2.07 2 .63 3.96 1.3 5.92 1.96 182.12 62.01 182.38 321.14 192.04 441.4 2.74 34.47 13.55 69.2 30.14 99.52 45.13 82.41 120.11 273.31 60.79 457.95Z" class="cls-22"/><path d="m1103.03 1060.08-10.48 20.81-8.85 17.55-.26-.37-69.83-100.74c-3.85-26.4-9.22-51.57-15.36-74.94z" class="cls-11"/><path d="M1274.88 2067.65c-3.05 0-5.53-2.46-5.55-5.51-2.93-374.24-121.21-610.76-189.82-655.96-60.02-39.53-116.21-16.65-116.77-16.42a5.55 5.55 0 0 1-7.27-2.96 5.55 5.55 0 0 1 2.94-7.27c2.5-1.06 61.89-25.48 126.95 17.2 70.98 46.57 192.1 285.84 195.07 665.32a5.56 5.56 0 0 1-5.51 5.6z" class="cls-24"/><path d="M1341.38 2077.79c-3.03 0-5.51-2.43-5.55-5.47-2.81-187.3-59.73-439.86-98.43-545.35-30.85-84.09-72.86-141.07-124.88-169.37-92.04-50.07-186.01 7.5-186.95 8.09-2.6 1.63-6.02.85-7.65-1.75a5.544 5.544 0 0 1 1.75-7.65c.99-.62 100.24-61.62 198.04-8.5 54.49 29.59 98.25 88.55 130.07 175.25 39.16 106.68 96.33 360.51 99.16 549.13.05 3.07-2.4 5.59-5.47 5.64h-.08Z" class="cls-24"/><path d="M1336.08 2073.5h-55.42c-3.44-377.01-122-625.4-192.75-671.83-56.98-37.36-114.38-24.24-128.22-19.5l2.42-31.66c35.91-12.48 93.63-22.73 150.65 8.29 52.02 28.29 94.04 85.27 124.88 169.35 38.69 105.52 95.63 358.05 98.44 545.35M801.12 290.18c-86.2 34.09-191.42 68.62-281.03 88.33-109.26 24.04-195.29 29.57-195.29 29.57l225.61-197.64c24.84-2.85 51.94-4.07 81.49-3.26 80.42 2.26 130.94 35.49 169.22 82.99Z" class="cls-23"/><ellipse cx="802.77" cy="552.33" class="cls-3" rx="58.99" ry="110.77"/><path d="M802.77 664.95c-33.55 0-60.84-50.52-60.84-112.62s27.29-112.62 60.84-112.62 60.84 50.52 60.84 112.62-27.29 112.62-60.84 112.62m0-221.54c-31.51 0-57.14 48.86-57.14 108.92s25.63 108.92 57.14 108.92 57.14-48.86 57.14-108.92-25.63-108.92-57.14-108.92" class="cls-24"/><path d="M859.96 549.81c0 40.91-9 75.17-24.62 75.17-12.22 0-26.36-21.33-30.29-49.77l26.58-26.58-26.29-26.29c4.15-27.36 15.24-47.68 27.16-47.68 15.62 0 27.45 34.21 27.45 75.16Z" class="cls-24"/><path d="M746.52 530.71s56.46-58.69 107.95-35.57c0 0 1.75-51.33-45.58-59.97-46.35-8.47-63.37 60.74-62.36 95.54Z" class="cls-11"/><path d="m744.8 535.17-.13-4.4c-.68-23.36 7.02-67.96 30.58-88.18 9.84-8.45 21.27-11.56 33.97-9.24 48.35 8.83 47.12 61.33 47.1 61.86l-.09 2.76-2.52-1.13c-49.69-22.31-105.3 34.59-105.85 35.17l-3.06 3.17Zm56.5-98.86c-8.68 0-16.6 3.04-23.64 9.08-20.17 17.32-28.98 56.2-29.32 80.99 12.49-11.62 59.9-51.58 104.25-34.04-.37-10.62-4.51-48.13-44.05-55.35-2.47-.45-4.89-.68-7.25-.68ZM839.19 934.54l-14.05 2.47h-.09c-57.09 1-197.41 12.63-223.81 29.66v.04c-.3 6-.46 10.77-.41 12.29l-.89-.3c-1.91-.65-3.34-2.84-3.61-5.49-1.04-10.14-.85-18.36.59-30.08.43-3.53 2.58-6.24 5.21-6.59l.48-.06c.5-.07.89.5.83 1.17-.36 4.02-1.49 9.65-1.74 15.5-.04.79 1.97 1 2.51.67 35.23-21.61 185-35.87 234.98-19.29ZM826.63 2199.03c-3.05 0-5.53-2.46-5.55-5.51-2.93-374.24-121.21-610.76-189.82-655.96-60.02-39.53-116.21-16.65-116.77-16.42a5.55 5.55 0 0 1-7.27-2.96 5.55 5.55 0 0 1 2.94-7.27c2.5-1.06 61.89-25.48 126.95 17.2 70.98 46.57 192.1 285.84 195.07 665.32a5.56 5.56 0 0 1-5.51 5.6z" class="cls-24"/><path d="M893.13 2209.17c-3.03 0-5.51-2.43-5.55-5.47-2.81-187.3-59.73-439.86-98.43-545.35-30.85-84.09-72.86-141.07-124.88-169.37-92.04-50.07-186.01 7.5-186.95 8.09-17.96 11.23-4.95-.13-2.35-1.76.99-.62 96.68-69.27 194.49-16.15 54.49 29.59 98.25 88.55 130.07 175.25 39.16 106.68 96.33 360.51 99.16 549.13.05 3.07-2.4 5.59-5.47 5.64h-.08Z" class="cls-24"/><path d="M854.48 495.12c-14.18-6.37-28.41-8.42-42.03-5.31-1.93-16.14 2.5-32.58 8.72-49.2 34.14 14.59 33.31 54.51 33.31 54.51" class="cls-22"/><ellipse cx="597.44" cy="577.32" class="cls-3" rx="72.5" ry="116.4"/><path d="M597.44 695.57c-41 0-74.35-53.05-74.35-118.25s33.35-118.25 74.35-118.25 74.35 53.05 74.35 118.25-33.35 118.25-74.35 118.25m0-232.8c-38.95 0-70.65 51.39-70.65 114.55s31.69 114.55 70.65 114.55 70.65-51.38 70.65-114.55-31.69-114.55-70.65-114.55" class="cls-24"/><path d="M669.84 579.72c0 42.91-16.51 77.68-36.91 77.68-15.14 0-28.14-19.14-33.84-46.58l29.88-29.88-30.29-30.29c5.48-28.51 18.73-48.61 34.25-48.61 20.4 0 36.91 34.77 36.91 77.68" class="cls-24"/><path d="M524.94 567.63s72.26-65.55 138.15-39.73c0 0 2.24-57.33-58.34-66.99-59.33-9.46-81.11 67.84-79.81 106.72" class="cls-11"/><path d="m523.22 571.69-.13-3.99c-.8-24.12 8.03-71.31 35.13-95.22 13.28-11.72 29.05-16.23 46.83-13.39 61.49 9.8 59.92 68.3 59.9 68.89l-.1 2.6-2.42-.95c-64.04-25.08-135.52 38.73-136.24 39.38l-2.96 2.68Zm71.79-109.72c-12.81 0-24.33 4.45-34.34 13.28-24.77 21.85-33.71 64.08-33.92 88.41 14.34-11.82 76.66-59.02 134.49-38.44-.36-11.22-5.15-54.26-56.77-62.49-3.22-.51-6.37-.77-9.45-.77Z" class="cls-24"/><path d="M663.1 527.89c-18.99-7.44-38.84-9.22-57.02-5.22-3.48-16.7-1.84-37.65.83-59.61 58.13 10.77 56.19 64.83 56.19 64.83" class="cls-22"/><path d="M282.69 548.43s21.19-30.21 37.23-30 167.86 266.23 167.86 266.23l7.95-33.44L335.6 500.41s-25.31-22.23-60.38 28.8z" class="cls-24"/><path d="M559.59 896.84c-36.62-13.85-63.16-53.91-63.16-101.11 0-43.54 22.62-81.08 54.91-97.48-28.03 18.59-47.09 55.02-47.09 96.89 0 45.84 22.88 85.23 55.35 101.7Z" class="cls-12"/><path d="M956.47 724.87c-1.78-9.03-6.44-15.77-10.55-15.29-13.11-37.39-44.72-63.79-81.56-63.79-45.39 0-82.93 40.21-87.6 91.6-40.13-11.88-80.86 16.55-90.89 24.29-12.77-48.2-51.87-83.38-98.08-83.38-56.5 0-102.48 52.68-102.48 117.44s45.98 117.44 102.48 117.44 102.48-52.68 102.48-117.44c0-7.29-.59-14.48-1.74-21.4 5.89-4.89 47.58-37.58 87.78-24.4.81 55.65 40.02 100.59 88.04 100.59s88.08-45.91 88.08-102.37c0-1.7-.04-3.41-.11-5.11 4.11-.89 6-9 4.15-18.18m-460.06 70.86c0-43.54 22.62-81.08 54.91-97.48-28.03 18.59-47.09 55.02-47.09 96.89 0 45.84 22.88 85.23 55.35 101.7-36.62-13.85-63.16-53.91-63.16-101.11Zm97.11 98.3c-43.1 0-78.19-44.35-78.19-98.89s35.1-98.85 78.19-98.85 78.23 44.35 78.23 98.85-35.1 98.89-78.23 98.89m182.79-147.98c-39.47-12.14-78.53 16.07-88.52 24.07a66 66 0 0 0-.96-4.55c6.66-5.33 48.83-37.06 89.67-24.4-.11 1.59-.19 3.26-.19 4.89Zm9.52 2.11c0-37.95 19.44-70.68 47.21-84.97-24.1 16.22-40.5 47.95-40.5 84.45 0 39.99 19.7 74.31 47.58 88.67-31.47-12.07-54.28-46.98-54.28-88.15Zm83.45 85.71c-37.02 0-67.2-38.69-67.2-86.23s30.17-86.15 67.2-86.15 67.24 38.65 67.24 86.15-30.17 86.23-67.24 86.23" class="cls-24"/><path d="M840.11 836.31c-31.36-12.03-54.13-46.72-54.28-87.71-39.21-11.88-66.49.44-98.04 21.51a66 66 0 0 0-.96-4.55c6.66-5.33 50.06-41.24 99.11-22.18 1.56-35.91 20.51-66.49 47.09-80.19-24.1 16.22-40.5 47.95-40.5 84.45 0 39.99 19.7 74.31 47.58 88.67" class="cls-12"/><path d="M700.06 993.98c-16.19 0-29.29-1.17-34.15-1.67a1.9 1.9 0 0 1-1.69-2.13c.35-3 3-5.18 5.99-4.92 17.42 1.47 73.04 4.61 102.75-11.99a5.72 5.72 0 0 1 7.5 1.71c.62.89.41 2.13-.5 2.72-20.64 13.33-54.17 16.29-79.89 16.29Z" class="cls-24"/><path d="M295.97 997.66s60.48 269.59 273.02 303.83" class="cls-6"/><path d="M275.03 1044.79s89.03 311.49 289.99 306.8" class="cls-6"/><path d="m1156.72 1078.18-40.21 64.16a13.13 13.13 0 0 1-10.4 6.11l-8.59.41-.48.04c-1 .15-6.03.11-7.4-10.11-1.74-12.77 3.26-32.91 4.81-38.8.33-1.18.81-2.37 1.48-3.44l19.77-32.1a13.16 13.16 0 0 1 8.81-6l16.36-2.93c.78-.15 1.52-.22 2.3-.22 3.81 0 7.48 1.67 9.96 4.63l2.48 2.89a13.075 13.075 0 0 1 1.11 15.36" class="cls-3"/><path d="M1086.48 1090.73c-1.26 2-2.18 4.15-2.78 6.41-.07.3-.15.59-.26.93l.26.37 8.85-17.55-6.07 9.85Z" class="cls-24"/><path d="m682.9 1485.12 144.79-442.98s196.55 62.04 266.34 116.97c0 0 74.88-207.03 211.16-287.18 0 0-108.5 265.89-122.91 480.74 0 0-133.74 100.48-187.32 170.27 0 0-202.67-44.58-312.07-37.82Z" class="cls-5"/><path d="m995.73 1525.01-1.15-.25c-2.02-.44-203.67-44.47-311.56-37.79l-2.72.17.85-2.59 145.36-444.72 1.75.55c1.95.61 193.99 61.6 264.94 115.74 8.89-23.3 83.65-210.83 211.08-285.77l4.72-2.78-2.07 5.07c-1.08 2.66-108.55 268.08-122.77 480.17l-.06.85-.68.51c-1.34 1.01-134.15 101.13-186.97 169.92l-.72.93Zm-288.72-42.43c106.97 0 271.81 34.98 287.22 38.31 51.61-66.6 175.94-161.35 186.28-169.18 13.38-196.22 105.94-437.36 120.94-475.35-131.21 80.84-204.93 281.35-205.67 283.39l-.87 2.41-2.01-1.59c-65.24-51.35-244.33-109.78-264.01-116.1l-143.38 438.65c6.83-.37 14.03-.54 21.5-.54" class="cls-24"/><path d="m689.5 1492.15 125.06-441.02s216.28 60.08 286.08 115.01c0 0 85.55-214.6 246.3-268.18 0 0-143.63 246.9-158.04 461.74 0 0-133.74 100.48-187.32 170.27 0 0-202.67-44.58-312.07-37.82Z" class="cls-5"/><path d="m1002.32 1532.03-1.15-.25c-2.02-.44-203.68-44.46-311.56-37.78l-2.61.16.71-2.52 125.56-442.8 1.78.5c2.15.6 213.54 59.72 284.8 113.85 9.8-23.18 95.65-216.72 246.49-267l4.65-1.55-2.46 4.23c-1.44 2.47-143.58 249-157.8 460.94l-.06.85-.68.51c-1.34 1.01-134.15 101.12-186.97 169.92l-.72.93Zm-288.71-42.42c106.97 0 271.8 34.98 287.21 38.3 51.61-66.6 175.94-161.35 186.28-169.18 13.54-197.21 136.85-423.67 155.8-457.43-155.17 55.24-239.71 263.41-240.55 265.53l-.92 2.3-1.95-1.53c-65.37-51.45-262.79-108.27-283.65-114.18l-123.84 436.74c6.87-.37 14.11-.54 21.62-.54Z" class="cls-24"/><path d="m695.81 1506.21 133.37-437.68s207.98 56.74 277.77 111.67c0 0 96.81-192.27 257.57-245.86 0 0-154.9 224.57-169.31 439.42 0 0-133.74 100.48-187.32 170.27 0 0-202.67-44.58-312.07-37.82Z" class="cls-5"/><path d="m1008.64 1546.1-1.15-.25c-2.02-.44-203.67-44.46-311.56-37.78l-2.66.16 134.67-441.95 1.74.47c2.06.56 205.7 56.52 276.66 110.64 10.92-20.62 106.76-194.51 257.6-244.8l5.25-1.75-3.15 4.56c-1.54 2.24-154.78 226.63-168.99 438.49l-.06.85-.68.51c-1.34 1.01-134.15 101.13-186.96 169.92l-.72.93Zm-288.72-42.42c106.97 0 271.81 34.98 287.22 38.3 51.61-66.59 175.94-161.35 186.28-169.18 13.48-195.82 144.63-401.81 166.5-434.91-155.1 55.1-250.36 241.26-251.32 243.15l-1.02 2.02-1.78-1.4c-65.33-51.42-255.16-105.23-275.38-110.86l-132.06 433.41c6.85-.37 14.07-.54 21.56-.54Z" class="cls-24"/><path d="M872.26 1286.63c3.7-12.18 7-24.77 2.44-29.88-2.44-2.7-8.96-5.22-26.25-1.89-70.35 13.66-80.86 7.96-87.93-.52-2.48-3-3.92-5.85-4.55-8.7-.11-.04-.19-.07-.22-.11l-9.59-7.7c-.89-.48-8.03-4.96-7.55-5.85.48-.93 6.81 3.81 7.7 4.29l9.18 4.92c.07-4.26 1.52-8.55 3.37-13.29 1.67-4.26 6.37-15.92 5.26-17.7-.3-.44-7.11-1.89-10.59-2.15-22.99-1.85-79.23-2.85-105 27.32-3.37 3.92-6.55 6.41-9.66 7.44-3.18 5.7-10.63 17.18-16.18 28.4-.04.04-.07.07-.07.11v.04c-3.3 6.59-5.92 13.07-6.7 18.22v.04l-.85 2.26-2.63-.07c.48-14.74 9.81-38.36 14.44-49.13-4.52-.26-9.07-.22-11.7-.19l-1.59.04c-23.62 0-39.5 28.66-39.5 71.27 0 50.13 6.48 66.2 26.58 66.2.67 0 1.52-.04 2.48-.04 1.52-.04 3.3-.11 5.18-.11 3.07 0 6.52.15 9.89.67-2.37-11.59-5.92-33.8-3.74-52.68l4.52.07c1.22 23.73 11.03 57.09 11.18 57.42v.04c22.14 27.25 63.42 46.28 100.37 46.28 28.43 0 61.76-13.48 87.01-35.14 2.55-2.22 4.07-6.22 5.63-10.48 1.7-4.52 3.44-9.18 6.81-12.96 1.93-2.11 3-3.41 4-4.67-19.81 5.81-47.35 8.33-65.09 9.33-6.33.96-12.11-.15-16.66-1.37a2.177 2.177 0 0 1-1.63-2.41l.37-3.33c32.62 5.22 72.53-7.52 95.37-18.1.22-.3.48-.59.74-.89 6.03-6.96 16.14-18.66 17.62-35.62.3-3.48 1.04-7.15 2-11-11.66 7.92-30.77 14.44-62.16 14.44-11.26 0-23.84-3.37-37.99-5.29l.78-3.89c73.86 10.11 97.41-10.77 104.93-23.66Zm-189.34 91.12-3 4.7-40.28-27.47 2.15-3.33.74-1.18 43.35 22.62-2.96 4.67Zm11.26-34.91-47.91-16.85.74-3.41.44-1.93 49.98 11.59-3.26 10.59Zm3.44-43.87-48.02-4.59v-4.78l48.02-1.74z" class="cls-3"/><path d="M883 1249.34c-6.52-7.26-18.14-8.96-36.65-5.37-63.87 12.37-79.75 6.66-83.49 2.11-3.26-3.85-2.48-8.52.37-15.77 3.18-8.15 12.18-20.22 8.11-26.73-2.48-3.96-10.22-6.07-16.92-6.59-24.69-1.96-85.23-2.89-114.37 31.17-3 3.55-4.63 4.11-4.63 4.22-6.92-1.11-16.03-1.04-20.36-1l-1.48.04c-30.29 0-50.61 33.1-50.61 82.38 0 40.73 2.89 77.31 37.69 77.31.74 0 1.7-.04 2.78-.04 4.63-.15 14.07-.41 18.77 2.07 24.25 29.25 68.64 49.61 108.33 49.61 30.99 0 67.09-14.48 94.23-37.84 4.74-4.07 6.92-9.89 8.81-15.03 1.41-3.7 2.7-7.18 4.7-9.4 3.55-3.96 4.7-5.52 6.78-8.29 1.55-2.11 3.67-4.96 7.92-10.29.67-.85 1.56-1.85 2.52-3 3.22-3.74 7.85-9.07 11.88-16.07 4.04-6.96 7.48-15.55 8.37-25.84.56-6.26 3.15-14.51 5.66-22.51 5.37-17.07 10.88-34.69 1.59-45.13Zm-10.74 37.28c-7.52 12.88-31.06 33.77-104.93 23.66l-.78 3.89c14.14 1.93 26.73 5.29 37.99 5.29 31.4 0 50.5-6.52 62.16-14.44-.96 3.85-1.7 7.52-2 11-1.48 16.96-11.59 28.66-17.62 35.62-.26.3-.52.59-.74.89-22.84 10.59-62.76 23.32-95.37 18.1l-.37 3.33c-.15 1.11.56 2.15 1.63 2.41 4.55 1.22 10.33 2.33 16.66 1.37 17.73-1 45.28-3.52 65.09-9.33-1 1.26-2.07 2.55-4 4.67-3.37 3.78-5.11 8.44-6.81 12.96-1.55 4.26-3.07 8.26-5.63 10.48-25.25 21.66-58.57 35.14-87.01 35.14-36.95 0-78.23-19.03-100.37-46.28v-.04c-.15-.33-9.96-33.69-11.18-57.42l-4.52-.07c-2.18 18.88 1.37 41.1 3.74 52.68-3.37-.52-6.81-.67-9.89-.67-1.89 0-3.67.07-5.18.11-.96 0-1.81.04-2.48.04-20.1 0-26.58-16.07-26.58-66.2 0-42.61 15.88-71.27 39.5-71.27l1.59-.04c2.63-.04 7.18-.07 11.7.19-4.63 10.77-13.96 34.39-14.44 49.13l2.63.07.85-2.26v-.04c.78-5.15 3.41-11.63 6.7-18.22v-.04s.04-.07.07-.11c5.55-11.22 13-22.7 16.18-28.4 3.11-1.04 6.29-3.52 9.66-7.44 25.77-30.17 82.01-29.17 105-27.32 3.48.26 10.29 1.7 10.59 2.15 1.11 1.78-3.59 13.44-5.26 17.7-1.85 4.74-3.3 9.03-3.37 13.29l-9.18-4.92c-.89-.48-7.22-5.22-7.7-4.29-.48.89 6.66 5.37 7.55 5.85l9.59 7.7s.11.07.22.11c.63 2.85 2.07 5.7 4.55 8.7 7.07 8.48 17.59 14.18 87.93.52 17.29-3.33 23.81-.81 26.25 1.89 4.55 5.11 1.26 17.7-2.44 29.88Z" class="cls-24"/><path d="m685.88 1373.08-2.96 4.66-3 4.7-40.28-27.47 2.15-3.33.74-1.19z" class="cls-24"/><path d="m647.01 1322.58-.11-.04" style="fill:none"/><path d="m697.44 1332.24-3.26 10.59-47.91-16.85.74-3.4.44-1.93zM697.62 1287.85v11.1l-48.02-4.59v-4.77z" class="cls-24"/><path d="m622.61 1271.37-6.7 18.22c.78-5.15 3.41-11.63 6.7-18.22" class="cls-3"/><path d="M615.91 1289.62c-.11.81-.19 1.52-.22 2.26h-.63z" class="cls-24"/><path d="m1104.07 1196.14-80.22 287.29" style="fill:#d5d1c0;stroke:#231f20;stroke-miterlimit:10"/><text style="fill:#231f20;font-family:SourceSerifRoman-Bold,&quot;Source Serif Variable&quot;;font-size:37.02px;font-variation-settings:&quot;wght&quot;700;font-weight:700" transform="rotate(18.68 -3050.044 3086.963)"><tspan x="0" y="0">2025</tspan><tspan x="80.27" y="0" style="letter-spacing:-.02em"> </tspan><tspan x="87.34" y="0">W</tspan><tspan x="123.66" y="0" style="letter-spacing:0">R</tspan><tspan x="149.31" y="0" style="letter-spacing:0">A</tspan><tspan x="174.19" y="0" style="letter-spacing:0">PP</tspan><tspan x="218.84" y="0">ED</tspan></text><path d="M1298.94 1052.22s28.18 16.94 24.58 58.97-63.34 57.64-63.34 57.64-40.83 10.21-39.33-27.92c1.5-38.12 54.64-50.3 54.64-50.3z" class="cls-3"/><path d="M1248.87 1175.61c-7.22 0-16.17-1.41-23.1-7.05-7.44-6.05-10.96-15.42-10.47-27.87 1.48-37.53 45.73-51.92 56.62-54.9l25.15-41.17 4.73 2.84c1.27.77 31.11 19.24 27.25 64.2-3.89 45.41-64.87 61.86-67.47 62.54-.47.12-5.8 1.41-12.71 1.41m51.58-115.22L1279 1095.5l-2.28.53c-.49.11-49.02 11.71-50.33 45.1-.34 8.75 1.79 15.07 6.35 18.8 9.23 7.53 25.92 3.55 26.09 3.51.48-.13 55.92-15.13 59.14-52.72 2.42-28.25-10.44-43.93-17.53-50.33Z" class="cls-24"/><path d="M1305.13 1149.99s-46.83 37.15-86.46 14.18c0 0-46.6 47.06 3.38 65.97 37.91 14.35 68.96-18.98 81.74-35.91 4.1-5.44 5.84-12.28 4.89-19.02l-3.56-25.22Z" class="cls-3"/><path d="M1290.84 1162.49c-.81 4.29-11.03 8.22-24.55 15.55-13.51 7.29-32.29.97-39.29 2.34-6.96 1.33-6.9 1.8-14.28 15.95-7.69 14.75 2.22 25.95 2.22 25.95l-6.63-1.85c-1.15-1-2.15-2.07-3-3.18l-2.74-22.21 14.22-28.66 10.37.26c20.73 8.22 42.5 2.07 57.94-5.15h.07c3.52-.33 5.89-.15 5.66 1Z" class="cls-1"/><path d="M1240.67 1239.19c-6.58 0-13.46-1.16-20.58-3.86-14.8-5.6-23.56-14.18-26.02-25.52-5.06-23.26 19.61-48.49 20.67-49.56l3.02-3.05 3.71 2.15c35.84 20.78 79.79-13.39 80.23-13.73l7.59-6 4.91 34.8c1.17 8.29-.95 16.51-5.96 23.14-10.42 13.8-35.42 41.62-67.56 41.62Zm-20.8-68.1c-6.83 7.95-17.68 23.86-14.94 36.38 1.62 7.41 8.04 13.29 19.1 17.47 33.6 12.73 61.62-15.88 75.34-34.06 3.22-4.27 4.58-9.56 3.83-14.9l-2.29-16.27c-14.96 9.54-49.16 26.9-81.03 11.39Z" class="cls-24"/><path d="M1292.3 1213.48s-49.08 44.58-88.48 11.93c0 0-39.41 29.49 17 53.58 56.4 24.09 71.49-65.52 71.49-65.52Z" class="cls-3"/><path d="M1239.18 1288.67c-6.55 0-13.42-1.52-20.55-4.57-20.75-8.87-32.05-19.84-33.58-32.61-2.07-17.22 14.72-30 15.44-30.53l3.5-2.62 3.37 2.79c35.18 29.16 79.35-10.09 81.21-11.77l11.86-10.72-2.65 15.76c-.37 2.15-9.23 52.94-39.08 69.25-6.12 3.34-12.65 5.02-19.51 5.02Zm-35.1-56.06c-3.58 3.59-8.9 10.28-8 17.6 1.03 8.41 10.34 16.6 26.91 23.67 11.48 4.91 21.42 4.92 30.36.03 16.25-8.87 25.44-31.73 29.94-46.9-17.54 11.25-50.22 26.13-79.21 5.6M475.02 459.94a2.12 2.12 0 0 1-.95-3.03c24.85-41.07 46.27-52.23 59.01-55.15 2.01-.46 17.39-4.21 60.69 8.2 17.53 5.03 35.73 11.38 35.88 11.42.75.17 3.25.75 5.36 1.25 2.62.61 5.35.31 7.78-.85a65 65 0 0 0 3.27-1.68c5.4-2.97 12.16-1.46 15.64 3.62l.37.54c3.36 4.91 2.66 11.34-1.51 15.39-6.69 6.5-15.53 11.71-34.23 6.73a2.7 2.7 0 0 1-.5-.19c-9.31-4.81-57.36-21.94-72.89-23.35-.96-.09-9.35-.11-12.49.61-11.21 2.56-37.39 5.32-62.96 35.9-.6.72-1.61.97-2.48.59Zm75.78-39.83" class="cls-24"/><path d="M805.53 1405.41c-23.58 16.44-49.18 31.5-74.99 31.5-39.21 0-78.76-17.96-101.68-46.17-2.44-1.55-.53-3.3-.53-3.3-.04-.07-.9-12.29-1.83-15.62 17.48 17.96 65.24 77.24 179.02 33.6Z" class="cls-1"/><path d="m1090.15 1085.62-6.44 12.81-70.1-101.12c-1.33-9.03-2.81-17.92-4.48-26.66z" class="cls-23"/><path d="M577.91 1359.6s30.66 8.57 37.28 2.48l2.96 18.1s-25.38.65-29.66-2.43-7.88-7.57-10.58-18.16Z" class="cls-1"/><path d="m736.6 401.07-2.12-1.21c-8.6-4.91-11.01-16.22-5.12-24.18 17.64-23.87 55.32-67.28 95.34-69.26 30.03-1.48 62.63 18.48 73.17 69.56l-4.15 5.7c-18.99-29.54-48.57-47.52-67.56-46.62-23.9 1.15-58.08 33.82-70.83 57.92-5.08 9.61-9.29 13.47-18.73 8.08Z" class="cls-24"/><path d="M532.73 1098.32c0 11.82-12.09 21.41-26.99 21.41s-31.38-19.43-31.38-31.25 16.47-11.56 31.38-11.56 26.99 9.58 26.99 21.41Z" class="cls-23"/><ellipse cx="331.46" cy="881.51" class="cls-23" rx="11.98" ry="15.33"/><ellipse cx="345.6" cy="651.37" class="cls-23" rx="27.44" ry="14.14" transform="rotate(-79.62 345.627 651.383)"/><ellipse cx="429.89" cy="385.12" class="cls-23" rx="20.86" ry="13.26" transform="rotate(-63.5 429.854 385.117)"/><path d="M970.2 981.68c0 11.11-1.46 22.08-10.17 22.08s-18.61-10.67-18.61-21.78 12.04-19.1 20.74-19.1 8.03 7.68 8.03 18.79ZM504.87 1363.37c0 11.4-4.4 17.04-15.8 17.04s-24.84-13.89-24.84-25.29 8.6-12.39 20-12.39 20.64 9.24 20.64 20.64" class="cls-23"/><circle cx="386.09" cy="1319.64" r="10.38" class="cls-23"/><ellipse cx="423.12" cy="1388.09" class="cls-23" rx="9.36" ry="16.27"/><ellipse cx="561.51" cy="1408.32" class="cls-23" rx="10.71" ry="13.51"/><circle cx="407.73" cy="1099.43" r="11.71" class="cls-23"/><circle cx="957.36" cy="891.09" r="14.11" class="cls-23"/><path d="M344.35 678.81c-8.26-2.98-13.45-7.89-15.43-14.6-4.7-15.96 10.54-36.23 11.19-37.08l2.21 1.68c-.15.2-15.05 20.01-10.74 34.62 1.71 5.81 6.32 10.1 13.71 12.77zM289.66 856.63l-2.25-1.63c12.33-17.01-3.45-39.58-3.61-39.81l2.26-1.61c.7.99 17.08 24.44 3.6 43.05M257.01 1006.99c-.5-16.1 3.09-27.46 10.66-33.77 8.56-7.14 18.95-5.03 19.39-4.93l-.58 2.72c-.09-.02-9.55-1.92-17.06 4.37-6.86 5.75-10.1 16.36-9.63 31.53l-2.78.09ZM237.62 1060.39c-9.7-8.46 1.01-30.27 1.47-31.19l2.48 1.24c-.1.21-10.22 20.8-2.13 27.86l-1.83 2.09ZM270.85 1171.33c-16.65-7.68-9.83-31.84-9.76-32.08l2.66.77c-.06.22-6.23 22.11 8.25 28.78l-1.16 2.52ZM244.6 1233c-12.13-7.28-4.94-25.69-4.63-26.47l2.58 1.03c-.07.17-6.63 17 3.48 23.06zM359.62 1249.68c-12.81-.54-16.19-16.05-16.19-24.17h2.78c0 .21.18 20.83 13.53 21.4l-.12 2.78ZM380.84 1381.63c-4.55-.04-8.39-1.73-11.4-5.04-9.41-10.32-7.61-32.92-7.53-33.87l2.77.23c-.02.22-1.77 22.36 6.82 31.77 2.51 2.75 5.57 4.1 9.37 4.13l-.02 2.78ZM356.61 1463.27c-1.08 0-2.14-.17-3.18-.52-6.65-2.22-9.79-10.82-9.92-11.18l2.61-.94c.03.08 2.83 7.7 8.19 9.49 2.45.81 5.15.27 8.03-1.62l1.53 2.32c-2.49 1.63-4.92 2.45-7.26 2.45M436.54 1513.55c-7.67 0-19.99-9.22-22.77-11.37l1.7-2.19c7.52 5.84 19.69 12.88 23.16 10.25 1.27-.96 2.65-4.41-2.34-16.73l2.57-1.04c4.46 11.01 4.91 17.36 1.44 19.99-1.02.78-2.31 1.11-3.77 1.11ZM493.83 1381.63c-12.69-.37-21.56-3.96-26.34-10.69-6.44-9.05-3.01-20.28-2.86-20.75l2.65.83c-.03.1-3.16 10.42 2.49 18.33 4.26 5.97 12.39 9.17 24.15 9.51l-.08 2.78ZM505.93 1119.72c-12.88-.89-22.14-5.12-27.53-12.58-7.88-10.92-4.49-24.6-4.34-25.18l2.69.69c-.03.13-3.21 13.04 3.92 22.88 4.88 6.75 13.44 10.59 25.45 11.41l-.19 2.77ZM966.27 1003.76l-1-2.59c4.66-1.8 3.77-22.56 1.65-36.72l2.75-.41c.91 6.07 5.02 36.49-3.4 39.72" class="cls-24"/><path d="M957.18 204.63c-4.11 8.81-36.99 74.12-119.96 100.63-7.92-16.14-37.62-69.72-85.64-78.53-9.55-1.74-19.18-1.63-28.92.37-7.18 1.48-14.4 4-21.62 7.52-14.14 6.85-28.4 17.62-42.65 32.21-84.16 86.19-206.7 104.7-251.61 90.86-5.29-1.63-8.66-3.52-10.48-5.22-.11-.07-.22-.19-.3-.26 16.25-12.59 87.71-66.24 194.63-122.4.22-.11.48-.22.7-.37 27.4-14.74 55.02-28.32 82.34-40.06 1.37-.59 2.78-1.22 4.15-1.81 23.7-10.55 48.54-20.84 74.34-30.58 1.33-.48 2.63-1 3.92-1.44 78.64-29.06 137.77-31.95 171.16-8.33 27.47 19.4 29.73 51.31 29.92 57.42Z" class="cls-18"/><path d="M591.35 229.44c25.51-13.37 53.06-26.92 82.34-40.06-27.32 11.74-54.94 25.32-82.34 40.06m-152.87 78.53c.33.37.67.74 1.04 1.11 46.24-31.17 97.19-62.94 149.02-90.67-63.53 33.14-114.88 65.61-150.06 89.56m-9.33 6.37c-27.77 19.29-43.17 31.62-43.65 31.99l-2.55 2.07c14.96-10.74 30.77-21.81 47.21-32.99-.33-.37-.67-.7-1-1.07Z" class="cls-24"/><path d="M430.15 315.41a2269 2269 0 0 0-47.21 32.99c-69.01 49.46-120.55 91.74-137.17 105.67-10.7-25.47-45.54-120.96-12.29-217.81 21.03-61.39 65.27-112.18 131.62-151.43-2.04 34.06-4.15 156.28 64.05 229.51.33.37.67.7 1 1.07" class="cls-14"/><path d="M741.78 149.06c-23.88 9.14-46.95 18.73-68.98 28.58-26.4 11.26-53.09 24.21-79.6 38.32-1.55.78-3.11 1.59-4.66 2.44-51.83 27.73-102.78 59.5-149.02 90.67-.37-.37-.7-.74-1.04-1.11-72.53-76.45-62.9-216.11-61.72-229.77a439 439 0 0 1 20.55-10.66c58.79-28.66 112.26-42.98 159.87-42.98 28.43 0 54.76 5.11 78.86 15.33 65.98 27.99 96.52 87.52 105.74 109.18" class="cls-14"/><path d="M933.86 138.25c-37.06-26.32-98.15-23.99-181.64 6.85-9.52-22.99-40.99-85.3-111.7-115.37-54.5-23.21-119.29-21.62-193.12 4.59-2.41-7.22-7.7-13-15.25-16.66-11.14-5.44-26.29-5.55-40.47-.33-24.95 9.18-39.8 31.1-33.73 49.87.81 2.48 1.93 4.81 3.41 6.92-69.79 40.8-116.29 94.04-138.43 158.65-40.06 116.96 13.51 228.07 15.81 232.73l3.15 6.44 5.44-4.66c1.26-1.07 57.94-49.43 139.88-108.29 2.89 3.37 7.89 6.74 16.29 9.33 9.29 2.85 22.14 4.52 37.47 4.52 58.35 0 152.95-24.03 225.4-98.22 13.7-14.03 27.21-24.18 40.5-30.43.04-.04.11-.04.15-.07 14.51-6.81 26.36-9.33 40.17-6.81 49.69 9.07 81.67 76.27 81.97 76.94l1.96 4.48 4.7-1.37c97.34-28.8 129.92-103.79 129.5-105.64l.85-3.33.96-6.2c.04-1.7 1.83-38.98-33.26-63.9ZM557.18 24.55c28.43 0 54.76 5.11 78.86 15.33 65.98 27.99 96.52 87.52 105.74 109.18-23.88 9.14-46.95 18.73-68.98 28.58-28.21 12.55-54.8 25.47-79.6 38.32-1.55.78-3.11 1.59-4.66 2.44-51.83 27.73-102.78 59.5-149.02 90.67-.37-.37-.7-.74-1.04-1.11-72.53-76.45-62.9-216.11-61.72-229.77a439 439 0 0 1 20.55-10.66c58.79-28.66 112.26-42.98 159.87-42.98m-161.65 3.18c5.74-2.11 11.59-3.15 17.1-3.15s10.44 1 14.66 3.07c3.41 1.67 7.89 4.81 9.7 10.44v.04c-14.51 5.52-29.36 12-44.54 19.4-2.74 1.33-5.41 2.67-8.07 4.04-1.81.93-3.63 1.85-5.41 2.81a392 392 0 0 0-7.89 4.26c-1.07-1.37-2-2.96-2.59-4.85-4.07-12.66 8.29-29.14 27.03-36.06Zm-12.59 320.66c-69.01 49.46-120.55 91.74-137.17 105.67-10.7-25.47-45.54-120.96-12.29-217.81 21.03-61.39 65.27-112.18 131.62-151.43-2.04 34.06-4.15 156.28 64.05 229.51.33.37.67.7 1 1.07a2269 2269 0 0 0-47.21 32.99m454.28-43.13c-7.92-16.14-37.62-69.72-85.64-78.53-8.74-1.59-17.55-1.63-26.44-.07 36.54-28.77 96.15-69.27 155.06-48.72 4.89 1.7 6.03.81 11.26-.89 3.11-1 1.15-2.37-1.96-3.78-83.56-36.76-186.27 54.42-202 69.09-9.66 6.37-19.4 14.55-29.1 24.47-84.16 86.19-206.7 104.7-251.61 90.86-5.29-1.63-8.66-3.52-10.48-5.22-.11-.07-.22-.19-.3-.26 16.25-12.59 87.71-66.24 194.63-122.4.22-.11.48-.22.7-.37 27.4-14.74 55.02-28.32 82.34-40.06 1.37-.59 2.78-1.22 4.15-1.81 23.7-10.55 48.54-20.84 74.34-30.58 1.33-.48 2.63-1 3.92-1.44 78.64-29.06 137.77-31.95 171.16-8.33 9.16 6.47 15.51 14.32 19.92 22.15 10.27 18.22 8.51 40.86-3.5 57.98-16.8 23.94-50.06 59.9-106.47 77.93Z" class="cls-24"/><path d="M437 38.1v.04c-14.51 5.52-29.36 12-44.54 19.4-2.74 1.33-5.41 2.67-8.07 4.04-1.81.93-3.63 1.85-5.41 2.81-2.67 1.37-5.29 2.78-7.89 4.26-1.07-1.37-2-2.96-2.59-4.85-4.07-12.66 8.29-29.14 27.03-36.06 5.74-2.11 11.59-3.15 17.1-3.15s10.44 1 14.66 3.07c3.41 1.67 7.89 4.81 9.7 10.44Z" class="cls-18"/><ellipse cx="428.05" cy="112.68" class="cls-15" rx="20.34" ry="21.74"/><path d="M428.05 136.28c-12.24 0-22.19-10.58-22.19-23.59s9.96-23.59 22.19-23.59 22.19 10.58 22.19 23.59-9.96 23.59-22.19 23.59m0-43.48c-10.19 0-18.49 8.92-18.49 19.89s8.29 19.89 18.49 19.89 18.49-8.92 18.49-19.89-8.29-19.89-18.49-19.89" class="cls-24"/><ellipse cx="329.57" cy="215.98" class="cls-15" rx="20.34" ry="21.74"/><path d="M329.57 239.58c-12.24 0-22.19-10.58-22.19-23.59s9.96-23.59 22.19-23.59 22.19 10.58 22.19 23.59-9.96 23.59-22.19 23.59m0-43.48c-10.2 0-18.49 8.92-18.49 19.89s8.29 19.89 18.49 19.89 18.49-8.92 18.49-19.89-8.29-19.89-18.49-19.89" class="cls-24"/><path d="M479.21 139.26c1.64-.75 3-1.06 4.1-.9s1.98.61 2.65 1.36 1.2 1.7 1.59 2.84c1.13 3.8 1.64 9.88 1.5 18.21-.13 8.34-.44 16.46-.91 24.36-.25 4.74-.41 8.61-.51 11.62l.02.06c4.69-3.18 8.17-4.49 10.46-3.92 2.29.56 3.68 1.89 4.17 4 1.02 3.9.96 7.28-.17 10.13-1.13 2.86-2.9 5.26-5.32 7.22a31.5 31.5 0 0 1-7.86 4.7c-3.03 1.35-5.95 1.69-8.77 1.01-2.81-.67-5.01-2.84-6.58-6.49-1.72-4.64-2.87-10.98-3.46-19.03-.58-8.05-.77-16.08-.55-24.1.21-8.01.66-14.29 1.32-18.84.41-2.99 1.25-5.48 2.54-7.47 1.29-2 3.21-3.58 5.76-4.76Z" class="cls-3"/><path d="M483.03 222.32c-1.09 0-2.18-.13-3.24-.38-3.39-.81-6.03-3.37-7.86-7.61-1.82-4.91-3.03-11.52-3.63-19.75-.59-8.08-.77-16.27-.56-24.32.22-8.04.67-14.46 1.34-19.11.45-3.28 1.41-6.08 2.86-8.33 1.48-2.3 3.69-4.14 6.56-5.46 1.96-.9 3.61-1.24 5.05-1.05 1.52.22 2.78.87 3.74 1.95.84.95 1.52 2.14 2 3.54 1.24 4.16 1.76 10.34 1.62 18.97-.13 8.3-.44 16.53-.91 24.45-.16 3-.28 5.67-.37 7.98 3.73-2.13 6.66-2.9 8.91-2.35 3.75.92 5.1 3.49 5.56 5.48 1.12 4.29 1.03 8.17-.27 11.46a19.5 19.5 0 0 1-5.91 8.05 33.7 33.7 0 0 1-8.3 4.97c-2.21.98-4.41 1.48-6.57 1.48Zm-3.11-81.18c-2.22 1.02-3.89 2.39-4.97 4.06-1.11 1.72-1.86 3.93-2.22 6.59-.65 4.49-1.09 10.74-1.3 18.6-.21 7.91-.03 15.94.55 23.87.57 7.81 1.68 14 3.32 18.43 1.28 2.97 3.02 4.73 5.26 5.27 2.46.59 4.98.3 7.68-.91 2.71-1.13 5.2-2.62 7.45-4.45 2.16-1.76 3.71-3.85 4.72-6.4.95-2.4.98-5.34.09-8.75-.23-.96-.73-2.07-2.79-2.57-1.01-.25-3.52-.1-9.09 3.67l-1.82 1.24-1.01-3.1q.135-4.53.51-11.67c.47-7.87.77-16.04.9-24.28.13-8.06-.34-13.96-1.41-17.54-.27-.78-.67-1.5-1.16-2.04-.37-.41-.88-.67-1.56-.76-.53-.08-1.5 0-3.16.76Z" class="cls-24"/><path d="M531.27 149.59c3.67-1.78 6.5-2.21 8.48-1.3s3.4 2.44 4.25 4.6c.85 2.15 1.43 4.18 1.73 6.08 1.01 5.82 1.08 11.46.21 16.93-.87 5.48-2.73 10.38-5.56 14.72-2.84 4.34-6.7 7.64-11.58 9.89-4.98 2.29-9.47 2.62-13.48.99-4-1.63-7.07-5.25-9.19-10.85-1.51-3.97-2.58-8.95-3.23-14.94-.65-5.98-.94-11.28-.88-15.89-.02-6.15.41-11.75 1.28-16.82s2.62-9.52 5.24-13.36c2.63-3.84 6.64-7.01 12.05-9.5 3.24-1.49 6.34-2.37 9.27-2.65 2.94-.27 5.48.3 7.63 1.71s3.67 3.85 4.57 7.35c2.08 7.82.21 13.46-5.6 16.9-.63.38-1.62.74-2.98 1.12-1.36.37-2.67.22-3.92-.46-1.26-.67-1.99-2.36-2.21-5.06-.03-1-.15-1.86-.33-2.55-.19-.69-.55-1.15-1.1-1.37-.54-.22-1.39-.06-2.54.47q-2.115.975-3.09 2.82c-.65 1.23-1.11 2.55-1.39 3.95-.4 2.19-.62 5.55-.65 10.1s.12 9.23.43 14.03c.32 4.8.79 8.63 1.4 11.48.46 1.83 1.01 3.13 1.64 3.89q.96 1.155 2.1 1.2t2.22-.45c1.8-.83 3.2-2.62 4.18-5.36q1.47-4.11.63-9.84c-.96.32-1.78.5-2.48.54-.69.04-1.4-.05-2.13-.29s-1.36-.74-1.89-1.49c-.54-.75-.89-1.87-1.07-3.36-.27-3.57.28-6.31 1.66-8.25 1.39-1.93 3.49-3.59 6.31-4.98Z" class="cls-3"/><path d="M520.56 204.56c-2.06 0-4.02-.38-5.89-1.15-4.48-1.83-7.94-5.86-10.25-11.98-1.56-4.13-2.69-9.33-3.36-15.48-.66-6.04-.96-11.48-.89-16.16-.02-6.21.42-12 1.31-17.17.92-5.35 2.8-10.13 5.58-14.21 2.81-4.12 7.12-7.54 12.81-10.16 3.39-1.56 6.69-2.5 9.83-2.8 3.32-.3 6.26.37 8.73 1.99 2.56 1.68 4.38 4.55 5.41 8.55 2.92 11-1.93 16.55-6.51 19.26-.38.23-.84.45-1.4.66 1.74-.26 3.25-.09 4.54.51 2.43 1.12 4.19 3.02 5.23 5.66.91 2.29 1.53 4.5 1.85 6.55 1.04 6 1.11 11.94.21 17.63-.92 5.75-2.9 10.99-5.89 15.56-3.03 4.64-7.19 8.2-12.37 10.58-3.13 1.44-6.12 2.16-8.94 2.16m10.68-85.1c-.4 0-.82.02-1.24.06-2.74.26-5.68 1.1-8.71 2.5-5.07 2.34-8.87 5.31-11.28 8.85-2.44 3.57-4.09 7.78-4.9 12.52-.84 4.92-1.26 10.45-1.25 16.44-.06 4.53.23 9.79.87 15.65.63 5.77 1.67 10.62 3.1 14.39 1.93 5.11 4.59 8.29 8.12 9.73 3.58 1.47 7.55 1.15 12.13-.95 4.54-2.09 8.17-5.18 10.8-9.2 2.66-4.07 4.43-8.74 5.24-13.88.83-5.2.76-10.65-.2-16.2-.28-1.76-.81-3.65-1.6-5.64-.66-1.67-1.73-2.82-3.27-3.53-1.47-.67-3.89-.23-7.02 1.28-2.53 1.24-4.42 2.71-5.61 4.38-1.07 1.51-1.5 3.8-1.27 6.81.16 1.29.46 1.96.68 2.27.3.42.62.68.97.79.51.17 1.01.24 1.49.21.57-.04 1.25-.19 2.05-.46l2.03-.68.34 2.3c.61 4.17.36 7.84-.73 10.91-1.17 3.27-2.91 5.45-5.18 6.5-.96.44-1.96.67-3 .61-.88-.04-2.18-.39-3.4-1.86-.85-1.02-1.52-2.57-2.06-4.72-.66-3.01-1.14-6.98-1.47-11.87-.32-4.85-.47-9.63-.44-14.19.03-4.72.25-8.15.68-10.5.32-1.62.86-3.14 1.6-4.56.85-1.62 2.19-2.86 3.97-3.68 1.63-.75 2.85-.91 3.87-.51 1.1.44 1.89 1.4 2.24 2.71.23.86.37 1.89.41 3.06.14 1.75.57 2.99 1.16 3.31.86.47 1.74.57 2.68.31 1.51-.42 2.22-.74 2.54-.93 5.06-2.99 6.55-7.61 4.71-14.54-.77-3.01-2-5.03-3.74-6.17-1.53-1-3.27-1.49-5.29-1.49Zm-6.01 17.62c-.1.02-.47.09-1.15.4-1.04.48-1.75 1.12-2.2 1.96-.55 1.05-.95 2.18-1.18 3.36-.37 2.03-.58 5.29-.6 9.68-.03 4.46.12 9.12.43 13.87.31 4.67.77 8.42 1.36 11.15.48 1.9.96 2.69 1.21 2.99.62.74.79.54.92.54q.675 0 1.32-.3c1.32-.61 2.38-2.03 3.17-4.23.67-1.87.92-4.08.76-6.61q-.405.06-.78.09c-.92.06-1.85-.07-2.77-.37-1.09-.36-2.04-1.1-2.81-2.18-.75-1.05-1.23-2.48-1.45-4.35-.32-4.17.37-7.43 2.04-9.78 1.57-2.19 3.93-4.07 7.02-5.58.77-.37 1.5-.69 2.21-.96-1.37.14-2.72-.13-4-.82-1.87-1-2.96-3.26-3.24-6.72-.03-.93-.12-1.62-.27-2.15Zm.03 0h-.02z" class="cls-24"/><path d="M565.77 99.39c6.76-3.28 11.89-4.74 15.37-4.37 3.49.36 5.63 1.92 6.43 4.65.91 2.59.84 5-.18 7.21-1.03 2.21-2.6 4.18-4.72 5.9a25.5 25.5 0 0 1-7.12 4.07c-.03.02-.04.04-.03.08.44 8.28.71 16.98.82 26.1v2.16c.15 6.59 0 13.17-.43 19.74-.07.84-.12 1.73-.14 2.68q.015 4.32-.99 8.28-1.005 3.975-4.86 5.55c-2.65.93-4.65.89-6.01-.1-1.35-.99-2.3-2.49-2.83-4.51-.54-2.02-.92-4.17-1.17-6.44-.11-.8-.21-1.58-.31-2.34q-1.05-7.215-1.41-16.44c-.23-6.15-.3-11.85-.22-17.12 0-3.26.03-6.53.1-9.79-4.17 2.52-7.25 3.54-9.25 3.09q-3-.69-3.66-3.63c-1.6-5.33-.51-10.02 3.26-14.04 3.77-4.03 9.54-7.6 17.33-10.72Z" class="cls-3"/><path d="M566.53 184.13c-1.42 0-2.63-.37-3.63-1.1-1.72-1.25-2.93-3.15-3.59-5.64-.56-2.11-.97-4.39-1.23-6.76l-.3-2.3c-.71-4.83-1.19-10.44-1.42-16.64-.23-6.15-.31-11.95-.22-17.24 0-2.12 0-4.27.04-6.41-3.24 1.62-5.77 2.19-7.72 1.74-3.43-.78-4.65-3.23-5.08-5.14-1.79-5.96-.54-11.39 3.77-15.99 3.93-4.2 9.96-7.95 17.93-11.15 7.1-3.44 12.41-4.91 16.24-4.51 5.32.56 7.3 3.59 8.02 6.05 1.07 3.04.98 6.03-.3 8.77-1.16 2.49-2.93 4.72-5.27 6.61a27 27 0 0 1-6.32 3.83c.4 7.82.65 16.14.75 24.75v2.18c.16 6.57.01 13.28-.43 19.9-.07.83-.11 1.69-.14 2.59.01 2.98-.34 5.96-1.06 8.77-.84 3.3-2.85 5.62-5.99 6.91-1.5.53-2.85.79-4.05.79Zm-6.51-62.93-.08 3.54c-.08 3.24-.11 6.49-.1 9.73-.08 5.25-.01 10.97.22 17.04.23 6.04.7 11.49 1.39 16.2l.31 2.36c.24 2.22.61 4.27 1.12 6.17.41 1.56 1.09 2.67 2.08 3.38.86.63 2.39.58 4.44-.14 1.94-.8 3.12-2.13 3.63-4.16.62-2.45.93-5.05.92-7.72.03-1.06.08-1.99.15-2.87.43-6.45.57-13.02.42-19.51v-2.2c-.11-8.94-.38-17.56-.81-25.63l-.18-.44.57-1.64.75-.36c2.54-.97 4.77-2.24 6.74-3.84 1.88-1.52 3.28-3.26 4.17-5.18.79-1.69.82-3.5.1-5.55-.39-1.32-1.28-2.97-4.88-3.35-3.16-.34-8.02 1.09-14.45 4.21l-.11.05c-7.51 3.01-13.12 6.46-16.67 10.27-3.24 3.47-4.16 7.37-2.79 11.94.23.99.64 1.9 2.28 2.28.87.2 3.07.09 7.99-2.88l2.82-1.7Z" class="cls-24"/><path d="M634.05 68.26c2.35-.19 4.41.82 6.17 3.02 1.38 1.82 2.45 3.86 3.2 6.1s1.37 4.5 1.85 6.79q1.14 5.46 1.32 11.01c.11 3.7.12 7.42.04 11.16-.03 2.35-.05 4.69-.05 7.02.14 6.56 0 13.14-.43 19.74-.02.65-.06 1.32-.1 2.02-.07 2.96-.46 5.87-1.17 8.72s-2.41 4.84-5.11 5.95c-2.49.85-4.33.81-5.53-.12s-2.02-2.37-2.47-4.31q-.66-2.91-.87-6.18c-.12-1.35-.28-2.61-.46-3.8-.45-3.32-.79-8.01-1.03-14.07s-.39-11.1-.44-15.11c-.47 4.46-1.14 9.58-2.04 15.36-.89 5.78-1.97 10.91-3.23 15.4s-2.71 7.02-4.34 7.6c-1.44.15-2.81-1.27-4.11-4.28-1.29-3.01-2.47-6.8-3.52-11.37-1.05-4.56-1.94-9.06-2.65-13.48 0 2.25 0 5.01-.03 8.29v6.87c.11 6.79-.04 13.37-.43 19.74a62 62 0 0 0-.17 3.2c.05 2.78-.22 5.41-.82 7.89s-2.13 4.23-4.6 5.24c-2.6.86-4.54.83-5.83-.08s-2.18-2.35-2.67-4.31-.85-4.05-1.08-6.28a42 42 0 0 0-.42-2.92c-.67-4.82-1.09-10.22-1.25-16.17s-.22-11.34-.2-16.15c-.13-8.38.32-16.72 1.38-25.02.25-1.98.69-3.9 1.34-5.77.64-1.87 1.71-3.42 3.2-4.66 3.18-2.36 6.01-2.72 8.48-1.08 2.47 1.65 4.57 4.34 6.3 8.09 1.72 3.75 3.11 7.61 4.15 11.58s1.77 7.12 2.19 9.43c.64-8.06 1.86-16.01 3.67-23.84.19-.72.35-1.5.5-2.34q.99-4.845 2.76-10.02c1.18-3.45 2.93-6.01 5.26-7.68 1.09-.67 2.17-1.07 3.25-1.18Z" class="cls-3"/><path d="M599.66 169.31c-1.37 0-2.52-.34-3.48-1.02-1.68-1.19-2.84-3.04-3.45-5.49-.52-2.06-.9-4.28-1.14-6.6-.1-.94-.24-1.87-.39-2.77-.7-4.97-1.12-10.49-1.28-16.49-.16-5.91-.22-11.37-.2-16.22-.14-8.41.34-16.93 1.4-25.29.27-2.12.75-4.22 1.44-6.21.76-2.22 2.04-4.09 3.82-5.56 4.84-3.59 8.4-2.62 10.55-1.19 2.76 1.84 5.11 4.84 6.99 8.91 1.65 3.58 3.01 7.3 4.05 11.07.66-4.53 1.5-9.04 2.52-13.48.19-.73.34-1.45.48-2.23.69-3.35 1.64-6.82 2.84-10.34 1.31-3.85 3.33-6.77 5.99-8.67 1.43-.88 2.76-1.36 4.08-1.5h.04c2.96-.26 5.54 1.01 7.69 3.7 1.55 2.04 2.73 4.29 3.55 6.74.78 2.33 1.43 4.7 1.92 7.03.78 3.74 1.24 7.58 1.36 11.4.11 3.72.13 7.51.04 11.28-.03 2.32-.05 4.65-.05 6.97.14 6.56-.01 13.27-.44 19.89-.02.61-.06 1.3-.1 2.02a42 42 0 0 1-1.23 9.12c-.87 3.51-2.97 5.97-6.24 7.32-3.2 1.1-5.54.96-7.24-.37-1.56-1.22-2.64-3.06-3.2-5.47-.47-2.04-.78-4.24-.92-6.55a55 55 0 0 0-.44-3.61c-.3-2.25-.56-5.09-.77-8.49-.71 3.77-1.5 7.23-2.38 10.33-1.49 5.29-3.25 8.13-5.54 8.94l-.39.09c-2.3.23-4.3-1.59-5.95-5.44-.95-2.2-1.84-4.82-2.66-7.82.03 5.81-.12 11.57-.46 17.14-.08 1.02-.14 2.05-.17 3.13.06 2.84-.24 5.69-.88 8.35-.76 3.15-2.69 5.38-5.74 6.62-1.51.5-2.83.75-4 .75Zm3.12-84.06c-1.05 0-2.46.4-4.27 1.74-1.14.95-1.98 2.18-2.5 3.69a25.8 25.8 0 0 0-1.23 5.33 175.6 175.6 0 0 0-1.36 24.7c-.03 4.85.04 10.26.2 16.12.15 5.83.56 11.19 1.22 15.92.16.92.3 1.93.42 2.98.22 2.13.56 4.14 1.03 5.99.37 1.47.99 2.5 1.89 3.14.79.56 2.32.5 4.3-.16 1.8-.74 2.89-1.96 3.34-3.81.55-2.29.81-4.75.76-7.33.04-1.27.1-2.36.18-3.41.39-6.29.53-12.88.42-19.54-.01-1.88-.01-4.18 0-6.91q.045-4.92.03-8.28l3.67-.36c.7 4.36 1.59 8.84 2.62 13.33 1.02 4.42 2.17 8.12 3.41 11 .93 2.17 1.7 2.93 2.09 3.09.5-.35 1.64-1.62 2.92-6.14 1.23-4.35 2.3-9.45 3.18-15.14.87-5.65 1.55-10.78 2.02-15.25l3.69.21c.05 3.99.2 9.01.44 15.05.23 5.94.57 10.6 1.01 13.86.18 1.19.34 2.51.47 3.9.13 2.13.41 4.09.82 5.89.34 1.46.91 2.49 1.74 3.14.68.53 2.07.47 3.92-.16 2.02-.84 3.32-2.34 3.87-4.54a37.3 37.3 0 0 0 1.1-8.23c.05-.77.08-1.42.1-2.05.42-6.56.56-13.14.43-19.62 0-2.39.02-4.74.05-7.1.08-3.71.07-7.42-.04-11.06-.11-3.56-.54-7.14-1.27-10.62-.45-2.17-1.05-4.37-1.78-6.54-.67-2.01-1.64-3.85-2.89-5.5-1.33-1.67-2.86-2.46-4.59-2.29-.81.09-1.63.39-2.5.93-1.88 1.35-3.4 3.59-4.43 6.61-1.14 3.35-2.05 6.63-2.68 9.75-.15.84-.33 1.67-.53 2.45-1.76 7.64-2.98 15.56-3.6 23.46l-1.13 14.28-2.52-14.06c-.4-2.25-1.13-5.37-2.15-9.26-1-3.82-2.36-7.6-4.03-11.23-1.56-3.38-3.44-5.82-5.6-7.26-.35-.23-1.07-.71-2.23-.71Z" class="cls-24"/><path d="M887.83 2204.88h-55.42c-3.44-377.01-122-625.4-192.75-671.83-56.98-37.36-111.96-28.1-125.8-23.36l18.12-33.96c45.95-2.69 75.7-2.26 135.54 22.88 62.31 26.18 91.03 76.83 121.88 160.91 38.69 105.52 95.63 358.05 98.44 545.35Z" class="cls-23"/><path d="M465.23 1507.4c-.61 0-1.22-.31-1.57-.86-.34-.55-.67-1.12-.98-1.72-2.9-5.64-3.38-12.64-1.38-20.23.26-.99 1.27-1.58 2.26-1.32s1.58 1.27 1.32 2.26c-1.79 6.79-1.42 12.71 1.1 17.6.26.5.53.98.82 1.44.54.87.28 2.01-.58 2.55-.31.2-.65.29-.99.29Z" class="cls-24"/></svg>